<?xml version="1.0" encoding="utf-8"?>
<!-- Generator: Adobe Illustrator 22.0.1, SVG Export Plug-In . SVG Version: 6.00 Build 0)  -->
<svg version="1.1" id="图层_1" xmlns="http://www.w3.org/2000/svg" xmlns:xlink="http://www.w3.org/1999/xlink" x="0px" y="0px"
	 viewBox="0 0 512 512" style="enable-background:new 0 0 512 512;" xml:space="preserve">
<style type="text/css">
	.st0{fill:#409EFF;}
</style>
<g>
	<path class="st0" d="M333,337.3c-19.4,0-23.7-20-40.6-110.5c-34.3,73.1-45,85.5-71.2,101.8c-39.3,24.4-90.5-3.7-94.3-66.2
		c-5-79.3,30-169.8,78-186.1c32.5-11.2,64.3,3.7,83,78.7c7.5-20,15.6-43.7,22.5-68.7c3.1-11.2,5.6-13.7,22.5-12.5
		c21.2,1.2,22.5,3.7,18.7,13.7c-10,26.2-36.8,89.3-48.7,116.1c26.2,104.9,36.8,106.1,69.3,46.8c3.7-6.9,16.9-1.2,13.1,11.9
		C369.2,321.1,352.4,337.3,333,337.3z M205,121.9c-38.7,30.6-61.2,106.1-54.9,148c6.9,45,37.5,58.1,64.3,31.2
		c17.5-17.5,30-40.6,64.3-122.4C257.5,107.6,231.2,101.3,205,121.9z"/>
</g>
<g>
	<path d="M144.3,396.2c3.3,5.9,5,12.3,5,19.3c0,3.8-0.9,6.8-2.7,9c-1.8,2.2-5.2,3.1-10.4,2.8c-0.4-3.1-0.8-6-1.4-8.6
		c1.1,0.2,2,0.4,2.7,0.4c2.1,0,3.1-1.4,3.1-4.1c0-6-1.7-12-5-17.9l4.9-17.1h-6v59.1H126v-67.8h23.8v8.3L144.3,396.2z M152.1,372
		h42.3v9.1h-4.5v43.5c0,4.2-0.8,7.4-2.4,9.6c-1.6,2.2-3.8,3.5-6.5,3.9c-2.7,0.4-7.8,0.6-15.2,0.5c-0.5-3.5-1.2-6.7-2.1-9.9
		c3.8,0.2,7.3,0.3,10.4,0.3c4.2,0,6.3-2.2,6.3-6.7v-41.2h-28.4V372z M175.7,388.8v31.5h-15.1v4h-8.5v-35.5H175.7z M160.6,397.1v15
		h6.6v-15H160.6z"/>
	<path d="M234.3,367.9l10.4,1.4c-0.8,2.2-1.7,4.4-2.7,6.5h46.4v9.3c-2.3,4.5-4.8,9.2-7.7,14.1l-8.7-4.2c2.4-4.2,4.3-7.5,5.5-9.9
		h-40.1c-3.5,6.2-7.5,11.9-11.9,17.1c-1.9-2.7-4.1-5.3-6.4-7.8C226,386,231,377.2,234.3,367.9z M236.6,397.9l9,4
		c-5.8,11-11.7,20.8-17.8,29.4c-2.3-1.8-4.9-3.7-7.9-5.7C226,417.3,231.5,408,236.6,397.9z M249.7,388.1h10.7v37.1
		c0,3.6-0.7,6.5-2,8.5c-1.4,2-3.2,3.2-5.4,3.7c-2.3,0.4-7.2,0.7-14.7,0.7c-0.7-3.6-1.5-7-2.6-10.4c3.7,0.4,6.9,0.6,9.6,0.6
		c3,0,4.5-1.7,4.5-5V388.1z M271.6,398.4c6.9,9.4,13.1,18.4,18.6,27.1l-9.4,5.5c-5.9-9.9-11.6-19.2-17.2-27.9L271.6,398.4z"/>
	<path d="M320.6,388.1c4.2,2.9,8.3,6.1,12.4,9.6l-6.8,7.5c-3.5-3.5-7.4-6.9-11.9-10.4L320.6,388.1z M324.7,407.5
		c2.8,1.4,5.9,2.6,9.4,3.7c-3.1,9-6,18.1-8.6,27.4c-3.4-1.3-6.7-2.4-9.8-3.4C318.9,427,321.9,417.8,324.7,407.5z M323,369.3
		c4.4,3,8.7,6.2,12.7,9.4l-6.5,7.3c-4.2-3.8-8.4-7.2-12.5-10.1L323,369.3z M371,412.9c5.8,7.4,10.8,14.7,15,21.8l-9.1,5.1l-2.9-4.9
		c-18.9,0.7-31.1,1.3-36.7,2l-3.7-8.3c5-4.2,10-10.6,15.1-19.3h-15v-8.6h20.8V388h-17.6v-8.6h17.6v-11.5h9.9v11.5h18.1v8.6h-18.1
		v12.8h21.2v8.6h-24.9c-3.8,6.3-8.1,12.2-12.7,17.6c6.2-0.2,13.1-0.4,20.6-0.8c-2-3.1-4-6-5.9-8.7L371,412.9z"/>
</g>
</svg>
